HIERARCHY
ROOT reference
{
  OFFSET 0 0 0
  CHANNELS 6 Xposition Yposition Zposition Zrotation Xrotation Yrotation
  JOINT Hips
  {
    OFFSET 44.6805 85.9651 -20.1189
    CHANNELS 3 Zrotation Xrotation Yrotation
    JOINT RightUpLeg
    {
      OFFSET -9.20028 -1.61905 0.0313892
      CHANNELS 3 Zrotation Xrotation Yrotation
      JOINT RightLeg
      {
        OFFSET 0.0920446 -41.8676 0.113709
        CHANNELS 3 Zrotation Xrotation Yrotation
        JOINT RightFoot
        {
          OFFSET -0.78009 -42.2818 -0.985537
          CHANNELS 3 Zrotation Xrotation Yrotation
          End Site
          {
            OFFSET 0 -7.69 17.5
          }
        }
      }
    }
    JOINT LeftUpLeg
    {
      OFFSET 9.33559 -1.63058 -0.0435578
      CHANNELS 3 Zrotation Xrotation Yrotation
      JOINT LeftLeg
      {
        OFFSET 0.124601 -41.8685 -0.0153308
        CHANNELS 3 Zrotation Xrotation Yrotation
        JOINT LeftFoot
        {
          OFFSET -0.885525 -42.178 -0.480441
          CHANNELS 3 Zrotation Xrotation Yrotation
          End Site
          {
            OFFSET 0 -7.69 17.5
          }
        }
      }
    }
    JOINT Spine
    {
      OFFSET -0.030151 14.2977 0.0632059
      CHANNELS 3 Zrotation Xrotation Yrotation
      JOINT Spine1
      {
        OFFSET -0.0449239 9.71163 -4.69081e-05
        CHANNELS 3 Zrotation Xrotation Yrotation
        JOINT Spine2
        {
          OFFSET 0.0275009 10.1133 -0.0283136
          CHANNELS 3 Zrotation Xrotation Yrotation
          JOINT Spine3
          {
            OFFSET 0.0288761 9.7229 -0.000806902
            CHANNELS 3 Zrotation Xrotation Yrotation
            JOINT Neck
            {
              OFFSET -0.0518603 10.2949 0.241895
              CHANNELS 3 Zrotation Xrotation Yrotation
              JOINT Head
              {
                OFFSET -0.275401 9.55953 0.0709142
                CHANNELS 3 Zrotation Xrotation Yrotation
                End Site
                {
                  OFFSET 0 15.95 0
                }
              }
            }
            JOINT RightShoulder
            {
              OFFSET -3.17286 6.95881 0.00543218
              CHANNELS 3 Zrotation Xrotation Yrotation
              JOINT RightArm
              {
                OFFSET -12.7612 0.039846 0.0411956
                CHANNELS 3 Zrotation Xrotation Yrotation
                JOINT RightForeArm
                {
                  OFFSET -26.5517 0.0729849 0.08211
                  CHANNELS 3 Zrotation Xrotation Yrotation
                  JOINT RightHand
                  {
                    OFFSET -26.0042 -0.0197864 0.0403594
                    CHANNELS 3 Zrotation Xrotation Yrotation
                    JOINT RightHandThumb1
                    {
                      OFFSET -2.48905 0.190105 3.12053
                      CHANNELS 3 Zrotation Xrotation Yrotation
                      JOINT RightHandThumb2
                      {
                        OFFSET -3.68274 0 0
                        CHANNELS 3 Zrotation Xrotation Yrotation
                        JOINT RightHandThumb3
                        {
                          OFFSET -2.55832 0 0
                          CHANNELS 3 Zrotation Xrotation Yrotation
                          End Site
                          {
                            OFFSET -2.194 0 0
                          }
                        }
                      }
                    }
                    JOINT RightInHandIndex
                    {
                      OFFSET -3.22368 0.508421 1.97842
                      CHANNELS 3 Zrotation Xrotation Yrotation
                      JOINT RightHandIndex1
                      {
                        OFFSET -5.21684 -0.091368 0.999158
                        CHANNELS 3 Zrotation Xrotation Yrotation
                        JOINT RightHandIndex2
                        {
                          OFFSET -3.61937 0 0
                          CHANNELS 3 Zrotation Xrotation Yrotation
                          JOINT RightHandIndex3
                          {
                            OFFSET -2.0521 0 0
                            CHANNELS 3 Zrotation Xrotation Yrotation
                            End Site
                            {
                              OFFSET -1.805 0 0
                            }
                          }
                        }
                      }
                    }
                    JOINT RightInHandMiddle
                    {
                      OFFSET -3.38211 0.517263 0.756737
                      CHANNELS 3 Zrotation Xrotation Yrotation
                      JOINT RightHandMiddle1
                      {
                        OFFSET -5.17411 -0.084 0.313895
                        CHANNELS 3 Zrotation Xrotation Yrotation
                        JOINT RightHandMiddle2
                        {
                          OFFSET -3.94947 0 0
                          CHANNELS 3 Zrotation Xrotation Yrotation
                          JOINT RightHandMiddle3
                          {
                            OFFSET -2.47579 0 0
                            CHANNELS 3 Zrotation Xrotation Yrotation
                            End Site
                            {
                              OFFSET -1.975 0 0
                            }
                          }
                        }
                      }
                    }
                    JOINT RightInHandRing
                    {
                      OFFSET -3.36516 0.537895 -0.128947
                      CHANNELS 3 Zrotation Xrotation Yrotation
                      JOINT RightHandRing1
                      {
                        OFFSET -4.63474 -0.022105 -0.478947
                        CHANNELS 3 Zrotation Xrotation Yrotation
                        JOINT RightHandRing2
                        {
                          OFFSET -3.44238 0 0
                          CHANNELS 3 Zrotation Xrotation Yrotation
                          JOINT RightHandRing3
                          {
                            OFFSET -2.3881 0 0
                            CHANNELS 3 Zrotation Xrotation Yrotation
                            End Site
                            {
                              OFFSET -1.857 0 0
                            }
                          }
                        }
                      }
                    }
                    JOINT RightInHandPinky
                    {
                      OFFSET -3.16105 0.469368 -1.20179
                      CHANNELS 3 Zrotation Xrotation Yrotation
                      JOINT RightHandPinky1
                      {
                        OFFSET -4.14105 -0.022105 -1.09053
                        CHANNELS 3 Zrotation Xrotation Yrotation
                        JOINT RightHandPinky2
                        {
                          OFFSET -2.75653 0 0
                          CHANNELS 3 Zrotation Xrotation Yrotation
                          JOINT RightHandPinky3
                          {
                            OFFSET -1.74189 0 0
                            CHANNELS 3 Zrotation Xrotation Yrotation
                            End Site
                            {
                              OFFSET -1.645 0 0
                            }
                          }
                        }
                      }
                    }
                  }
                }
              }
            }
            JOINT LeftShoulder
            {
              OFFSET 3.22572 6.89245 -0.0537601
              CHANNELS 3 Zrotation Xrotation Yrotation
              JOINT LeftArm
              {
                OFFSET 12.8183 -0.0506887 -0.111983
                CHANNELS 3 Zrotation Xrotation Yrotation
                JOINT LeftForeArm
                {
                  OFFSET 26.4786 -0.0502099 0.0159937
                  CHANNELS 3 Zrotation Xrotation Yrotation
                  JOINT LeftHand
                  {
                    OFFSET 25.8931 -0.161185 0.0946899
                    CHANNELS 3 Zrotation Xrotation Yrotation
                    JOINT LeftHandThumb1
                    {
                      OFFSET 2.48905 0.190105 3.12053
                      CHANNELS 3 Zrotation Xrotation Yrotation
                      JOINT LeftHandThumb2
                      {
                        OFFSET 3.68274 0 0
                        CHANNELS 3 Zrotation Xrotation Yrotation
                        JOINT LeftHandThumb3
                        {
                          OFFSET 2.55832 0 0
                          CHANNELS 3 Zrotation Xrotation Yrotation
                          End Site
                          {
                            OFFSET 2.194 0 0
                          }
                        }
                      }
                    }
                    JOINT LeftInHandIndex
                    {
                      OFFSET 3.22368 0.508421 1.97842
                      CHANNELS 3 Zrotation Xrotation Yrotation
                      JOINT LeftHandIndex1
                      {
                        OFFSET 5.21684 -0.091368 0.999158
                        CHANNELS 3 Zrotation Xrotation Yrotation
                        JOINT LeftHandIndex2
                        {
                          OFFSET 3.61937 0 0
                          CHANNELS 3 Zrotation Xrotation Yrotation
                          JOINT LeftHandIndex3
                          {
                            OFFSET 2.0521 0 0
                            CHANNELS 3 Zrotation Xrotation Yrotation
                            End Site
                            {
                              OFFSET 1.805 0 0
                            }
                          }
                        }
                      }
                    }
                    JOINT LeftInHandMiddle
                    {
                      OFFSET 3.38211 0.517263 0.756737
                      CHANNELS 3 Zrotation Xrotation Yrotation
                      JOINT LeftHandMiddle1
                      {
                        OFFSET 5.17411 -0.084 0.313895
                        CHANNELS 3 Zrotation Xrotation Yrotation
                        JOINT LeftHandMiddle2
                        {
                          OFFSET 3.94947 0 0
                          CHANNELS 3 Zrotation Xrotation Yrotation
                          JOINT LeftHandMiddle3
                          {
                            OFFSET 2.47579 0 0
                            CHANNELS 3 Zrotation Xrotation Yrotation
                            End Site
                            {
                              OFFSET 1.975 0 0
                            }
                          }
                        }
                      }
                    }
                    JOINT LeftInHandRing
                    {
                      OFFSET 3.36516 0.537895 -0.128947
                      CHANNELS 3 Zrotation Xrotation Yrotation
                      JOINT LeftHandRing1
                      {
                        OFFSET 4.63474 -0.022105 -0.478947
                        CHANNELS 3 Zrotation Xrotation Yrotation
                        JOINT LeftHandRing2
                        {
                          OFFSET 3.44238 0 0
                          CHANNELS 3 Zrotation Xrotation Yrotation
                          JOINT LeftHandRing3
                          {
                            OFFSET 2.3881 0 0
                            CHANNELS 3 Zrotation Xrotation Yrotation
                            End Site
                            {
                              OFFSET 1.857 0 0
                            }
                          }
                        }
                      }
                    }
                    JOINT LeftInHandPinky
                    {
                      OFFSET 3.16105 0.469368 -1.20179
                      CHANNELS 3 Zrotation Xrotation Yrotation
                      JOINT LeftHandPinky1
                      {
                        OFFSET 4.14105 -0.022105 -1.09053
                        CHANNELS 3 Zrotation Xrotation Yrotation
                        JOINT LeftHandPinky2
                        {
                          OFFSET 2.75653 0 0
                          CHANNELS 3 Zrotation Xrotation Yrotation
                          JOINT LeftHandPinky3
                          {
                            OFFSET 1.74189 0 0
                            CHANNELS 3 Zrotation Xrotation Yrotation
                            End Site
                            {
                              OFFSET 1.645 0 0
                            }
                          }
                        }
                      }
                    }
                  }
                }
              }
            }
          }
        }
      }
    }
  }
}
MOTION
Frames: 2
Frame Time: 0.00833333
6.000000000000000000e+02 0.000000000000000000e+00 0.000000000000000000e+00 0.000000000000000000e+00 0.000000000000000000e+00 0.000000000000000000e+00 2.567644817266892421e+00 -8.653595143475123486e-01 2.665011036473334372e+00 -2.060178525666929161e+00 -5.480655789993521765e+00 -1.687280485027899735e+00 -1.875760191192486159e+00 1.604264059723899516e+00 -3.611301836201154525e-01 2.731604247567164023e+00 -1.583914332733953767e+00 -4.174649996583415401e+00 -3.930631205834811404e-03 -5.881309205712007326e+00 1.018019247538570315e+00 3.714986913473549701e-01 -7.245391470012756407e-01 2.901831185135763103e-01 1.445971228625268612e+00 -1.628981198061372204e+00 -8.599953612864056351e-01 4.417070425508753395e-01 1.720511987601391346e-01 2.962590855274212509e-01 1.247363797039297839e-01 2.249934467716688813e-01 5.010164702112783475e-02 1.870618990072492882e-01 5.770258306160336303e-01 1.284788086263613516e-01 -1.645764002452194952e-01 -3.291971436220152980e-01 8.078470921190231135e-02 -3.250473358128884271e+00 4.795581379678390377e+00 1.720010960403068001e+00 -1.748154859648487047e+00 1.026012439682582711e+00 -3.919208581281830028e+00 -2.103160904524600527e-01 -9.702170251354982344e-01 -3.930708288513541593e+00 2.503563841852697980e+00 -2.895252025046999300e-01 3.101845346701397776e+00 5.213529268231105185e+00 3.016346664537385536e+00 -1.444176327811301803e+02 -2.162661292982904992e+00 -2.116732371001879720e+00 1.923169666694373614e+00 0.000000000000000000e+00 0.000000000000000000e+00 0.000000000000000000e+00 -5.505906761751907975e-15 1.284537774207928520e-14 0.000000000000000000e+00 -7.471457174053473253e-15 7.335215691479868438e-15 0.000000000000000000e+00 -5.079092278526654592e-15 -5.132231281064088895e-15 -3.700768142397816206e-16 0.000000000000000000e+00 0.000000000000000000e+00 0.000000000000000000e+00 0.000000000000000000e+00 1.308394329608145135e-15 -5.920547008156505507e-15 0.000000000000000000e+00 -1.483304014950507034e-14 -8.049460154559511372e-14 -5.079092278526654592e-15 -5.132231281064088895e-15 -3.700768142397816206e-16 0.000000000000000000e+00 -2.944483009480456133e-15 8.806367050980677261e-15 0.000000000000000000e+00 1.756206744466345447e-15 1.316613693083319682e-14 0.000000000000000000e+00 -1.507449200345846538e-14 -7.420316129984490120e-14 -5.079092278526654592e-15 -5.132231281064088895e-15 -3.700768142397816206e-16 0.000000000000000000e+00 0.000000000000000000e+00 0.000000000000000000e+00 0.000000000000000000e+00 6.113544168187304115e-16 1.047069659698844396e-14 0.000000000000000000e+00 -1.853919471977841425e-14 -7.436212910188293823e-14 -5.079092278526654592e-15 -5.132231281064088895e-15 -3.700768142397816206e-16 0.000000000000000000e+00 0.000000000000000000e+00 0.000000000000000000e+00 0.000000000000000000e+00 4.764839218279860079e-15 1.519767451059118328e-14 0.000000000000000000e+00 -3.228530621157420971e-15 -3.647648324661963640e-14 -7.778026066525939308e-01 1.781638531592814267e+00 -8.570224443191414299e-01 1.889845937440391532e+00 -1.614466773132681388e+00 -2.676102342889491226e+00 3.688721446085880817e-01 7.825480260831527701e+00 5.853967707923910524e+00 -9.250230672570726398e+00 -3.937072898099413631e+00 -3.089268872897180529e+01 0.000000000000000000e+00 0.000000000000000000e+00 0.000000000000000000e+00 -2.267560918390719595e-14 -5.841422378749570794e-15 0.000000000000000000e+00 -1.020681954000011177e-14 -1.315705373298787182e-14 0.000000000000000000e+00 3.328892200472693679e-15 2.888053434594715053e-15 4.073691831845603001e-15 0.000000000000000000e+00 0.000000000000000000e+00 0.000000000000000000e+00 0.000000000000000000e+00 -2.251941941000407872e-15 2.490943577397927661e-14 0.000000000000000000e+00 -2.626419215522299216e-15 -2.337940093037119875e-15 3.328892200472693679e-15 2.888053434594715053e-15 4.073691831845603001e-15 0.000000000000000000e+00 -1.711380804572799345e-15 8.351599491825565693e-15 0.000000000000000000e+00 8.786336344842116364e-15 -1.513501588531787259e-14 0.000000000000000000e+00 2.316006432664596114e-16 7.721250953991567957e-15 3.328892200472693679e-15 2.888053434594715053e-15 4.073691831845603001e-15 0.000000000000000000e+00 0.000000000000000000e+00 0.000000000000000000e+00 0.000000000000000000e+00 -2.237956541861271330e-14 1.175023001654176635e-13 0.000000000000000000e+00 -5.991313981398439756e-15 1.935820660182957598e-15 3.328892200472693679e-15 2.888053434594715053e-15 4.073691831845603001e-15 0.000000000000000000e+00 0.000000000000000000e+00 0.000000000000000000e+00 0.000000000000000000e+00 2.052913717026500919e-16 1.071732205210783634e-14 0.000000000000000000e+00 -7.829604394767653504e-16 1.587082271667378348e-15
6.000000000000000000e+02 0.000000000000000000e+00 0.000000000000000000e+00 0.000000000000000000e+00 0.000000000000000000e+00 0.000000000000000000e+00 2.495114102986425220e+00 -7.410557214231319190e-01 2.684540506222288681e+00 -2.192601176088580406e+00 -5.289534740180386052e+00 -1.758355341794944238e+00 -1.906574926596773967e+00 1.525762781017683034e+00 -2.011651988426780280e-01 2.772996179882029733e+00 -1.681765779056195287e+00 -4.201605237766522727e+00 -9.753633463312144647e-02 -5.756639991385053001e+00 1.017701337899168390e+00 4.307901977340293787e-01 -7.474519797626971718e-01 7.139703060410973467e-02 1.409579728776654051e+00 -1.621046613902504152e+00 -8.821610908166878096e-01 4.996062836710670751e-01 2.187177758815068984e-01 3.714125382805313347e-01 1.409231579000019274e-01 2.271835441367529018e-01 7.215638517664889340e-02 2.128366309417657753e-01 5.965831004788452185e-01 1.725398453418278411e-01 -1.677509071844949240e-01 -2.848176494720658369e-01 9.555807337639762866e-02 -3.374561421897794844e+00 4.958670091390614765e+00 1.760155906952211247e+00 -1.662114643582432771e+00 1.116581735033449707e+00 -3.987549451593803695e+00 -8.910469087079769812e-02 -1.022652665538297256e+00 -3.791246841587910588e+00 2.395809951269755267e+00 -2.338374762524230432e-01 3.089285675716095803e+00 6.035475999212778220e+00 3.345482785492743361e+00 -1.433590532953949719e+02 -2.188894686445463478e+00 -2.016551460240396665e+00 1.597917784922514572e+00 0.000000000000000000e+00 0.000000000000000000e+00 0.000000000000000000e+00 -5.227104514691594880e-15 1.225474815658125998e-14 0.000000000000000000e+00 -7.212140456592308243e-15 6.953832888702133602e-15 0.000000000000000000e+00 -4.925595420989765086e-15 -4.933319170761869649e-15 -3.269546167384147245e-16 0.000000000000000000e+00 0.000000000000000000e+00 0.000000000000000000e+00 0.000000000000000000e+00 1.355794454211144887e-15 -6.114363107543199654e-15 0.000000000000000000e+00 -1.458630916600930208e-14 -7.845762311722481229e-14 -4.925595420989765086e-15 -4.933319170761869649e-15 -3.269546167384147245e-16 0.000000000000000000e+00 -2.791334463717792904e-15 8.086530740199771080e-15 0.000000000000000000e+00 1.766734216087177379e-15 1.194057078917104341e-14 0.000000000000000000e+00 -1.460361260237990361e-14 -7.158707313438662447e-14 -4.925595420989765086e-15 -4.933319170761869649e-15 -3.269546167384147245e-16 0.000000000000000000e+00 0.000000000000000000e+00 0.000000000000000000e+00 0.000000000000000000e+00 4.025407831582986436e-16 9.666328600518330216e-15 0.000000000000000000e+00 -1.796315781706410208e-14 -7.164398961890291152e-14 -4.925595420989765086e-15 -4.933319170761869649e-15 -3.269546167384147245e-16 0.000000000000000000e+00 0.000000000000000000e+00 0.000000000000000000e+00 0.000000000000000000e+00 4.560320550526293105e-15 1.422010167048149917e-14 0.000000000000000000e+00 -3.499522056068356040e-15 -3.614009330664266016e-14 -8.298370434469265478e-01 1.834099695263034624e+00 -8.863133869110846330e-01 1.771671518708906490e+00 -1.509549846879823409e+00 -2.523461772904265654e+00 3.050941536832980638e-01 8.044145684309821576e+00 6.616014330378341413e+00 -7.495282862243579203e+00 -5.416112943378385225e+00 -2.823904886447659379e+01 0.000000000000000000e+00 0.000000000000000000e+00 0.000000000000000000e+00 -2.180321367383379741e-14 -5.702972266038831247e-15 0.000000000000000000e+00 -9.853900616303128133e-15 -1.295146265959381191e-14 0.000000000000000000e+00 3.319216000402736621e-15 2.813937894291853085e-15 4.054623833934295956e-15 0.000000000000000000e+00 0.000000000000000000e+00 0.000000000000000000e+00 0.000000000000000000e+00 -1.791466593666645329e-15 2.242657722145311311e-14 0.000000000000000000e+00 -2.455026462138590302e-15 -2.362946870238572088e-15 3.319216000402736621e-15 2.813937894291853085e-15 4.054623833934295956e-15 0.000000000000000000e+00 -1.697393096034841138e-15 7.475060462317731262e-15 0.000000000000000000e+00 9.143427330347060186e-15 -1.767615824261792089e-14 0.000000000000000000e+00 2.757513735427381796e-16 7.487806614037717000e-15 3.319216000402736621e-15 2.813937894291853085e-15 4.054623833934295956e-15 0.000000000000000000e+00 0.000000000000000000e+00 0.000000000000000000e+00 0.000000000000000000e+00 -2.039708650861495522e-14 1.069801145007234458e-13 0.000000000000000000e+00 -5.894275826125530139e-15 1.745343151901091182e-15 3.319216000402736621e-15 2.813937894291853085e-15 4.054623833934295956e-15 0.000000000000000000e+00 0.000000000000000000e+00 0.000000000000000000e+00 0.000000000000000000e+00 2.506000542008237125e-16 9.552129382426772194e-15 0.000000000000000000e+00 -6.748951298350285469e-16 1.435132329345508224e-15
